<?xml version="1.0" standalone="no"?>
<!DOCTYPE svg PUBLIC "-//W3C//DTD SVG 20010904//EN"
 "http://www.w3.org/TR/2001/REC-SVG-20010904/DTD/svg10.dtd">
<svg version="1.0" xmlns="http://www.w3.org/2000/svg"
 width="500.000000pt" height="500.000000pt" viewBox="0 0 500.000000 500.000000"
 preserveAspectRatio="xMidYMid meet">
<metadata>
Created by potrace 1.14, written by Peter Selinger 2001-2017
</metadata>
<g transform="translate(0.000000,500.000000) scale(0.100000,-0.100000)"
fill="#000000" stroke="none">
<path d="M2345 4144 c-144 -50 -315 -169 -492 -340 l-112 -109 4 -65 c3 -36 7
-120 9 -186 l3 -122 -68 23 c-60 21 -162 47 -354 90 -56 13 -231 44 -283 50
-12 2 -53 8 -90 14 -37 6 -89 13 -117 16 -27 3 -59 8 -70 10 -11 2 -51 7 -90
10 -38 4 -88 8 -110 11 -211 22 -287 26 -284 16 4 -10 135 -152 326 -352 39
-41 90 -95 113 -120 23 -25 97 -103 164 -174 160 -170 171 -182 313 -332 67
-71 142 -151 168 -179 26 -27 74 -79 108 -113 l60 -64 95 35 94 35 -6 -71 c-8
-91 -15 -162 -21 -207 -2 -19 -7 -57 -10 -85 -3 -27 -8 -61 -10 -75 -2 -14 -7
-55 -11 -92 l-6 -67 134 -157 c324 -382 538 -609 635 -673 54 -36 83 -36 136
1 117 82 402 395 686 752 55 70 61 82 57 115 -7 48 -14 121 -21 201 -3 36 -8
81 -10 100 -2 19 -6 58 -10 85 -16 143 -16 167 3 160 9 -3 55 -20 102 -36 l85
-30 59 63 c32 35 114 122 181 193 68 72 142 150 165 175 49 52 266 282 325
345 22 23 101 106 175 185 74 79 146 155 160 170 136 143 180 193 180 201 0
11 -68 7 -290 -16 -25 -3 -70 -7 -100 -10 -30 -3 -66 -8 -80 -10 -14 -2 -50
-7 -80 -10 -30 -4 -64 -8 -75 -9 -68 -10 -133 -19 -150 -22 -11 -2 -63 -11
-115 -20 -108 -18 -328 -67 -410 -90 -30 -9 -62 -17 -70 -19 -8 -2 -32 -10
-52 -19 -21 -9 -42 -16 -47 -16 -5 0 -8 28 -6 63 2 34 6 119 10 189 l7 127
-88 86 c-82 81 -234 208 -299 250 -220 142 -361 175 -520 119z"/>
</g>
</svg>
